<svg width="400" height="400" viewBox="0 0 400 400" fill="none" xmlns="http://www.w3.org/2000/svg">
<rect width="400" height="400" fill="#22201E"/>
<rect width="400" height="400" fill="url(#paint0_linear_3270_610)"/>
<rect width="400" height="400" fill="url(#paint1_linear_3270_610)"/>
<path fill-rule="evenodd" clip-rule="evenodd" d="M133.011 236.011C142.622 226.4 155.658 221 169.25 221H230.75C244.342 221 257.378 226.4 266.989 236.011C276.6 245.622 282 258.658 282 272.25V292.75C282 298.411 277.411 303 271.75 303C266.089 303 261.5 298.411 261.5 292.75V272.25C261.5 264.095 258.26 256.273 252.494 250.506C246.727 244.74 238.905 241.5 230.75 241.5H169.25C161.095 241.5 153.273 244.74 147.506 250.506C141.74 256.273 138.5 264.095 138.5 272.25V292.75C138.5 298.411 133.911 303 128.25 303C122.589 303 118 298.411 118 292.75V272.25C118 258.658 123.4 245.622 133.011 236.011Z" fill="white"/>
<path fill-rule="evenodd" clip-rule="evenodd" d="M200 118.5C183.017 118.5 169.25 132.267 169.25 149.25C169.25 166.233 183.017 180 200 180C216.983 180 230.75 166.233 230.75 149.25C230.75 132.267 216.983 118.5 200 118.5ZM148.75 149.25C148.75 120.945 171.695 98 200 98C228.305 98 251.25 120.945 251.25 149.25C251.25 177.555 228.305 200.5 200 200.5C171.695 200.5 148.75 177.555 148.75 149.25Z" fill="white"/>
<defs>
<linearGradient id="paint0_linear_3270_610" x1="200" y1="8.09133e-06" x2="-343" y2="606.5" gradientUnits="userSpaceOnUse">
<stop stop-color="#BB60A8" stop-opacity="0"/>
<stop offset="1" stop-color="#BB60A8"/>
</linearGradient>
<linearGradient id="paint1_linear_3270_610" x1="200" y1="161" x2="851" y2="438.5" gradientUnits="userSpaceOnUse">
<stop stop-color="#FD6A49" stop-opacity="0"/>
<stop offset="1" stop-color="#FD6A49"/>
</linearGradient>
</defs>
</svg>
