<svg width="1352" height="557" viewBox="0 0 1352 557" fill="none" xmlns="http://www.w3.org/2000/svg">
<path d="M655.24 199.611C661.184 199.611 666.002 204.458 666.002 210.436V234.443C666.002 249.56 678.185 261.815 693.214 261.815H736.243C751.272 261.815 763.455 249.56 763.455 234.443V210.436C763.455 204.458 768.273 199.611 774.217 199.611C780.16 199.611 784.978 204.458 784.978 210.436V332.491C784.978 338.47 780.16 343.316 774.217 343.316C768.273 343.316 763.455 338.47 763.455 332.491V310.538C763.455 295.421 751.272 283.166 736.243 283.166H693.214C678.185 283.166 666.002 295.421 666.002 310.538V332.491C666.002 338.47 661.184 343.316 655.24 343.316C649.297 343.316 644.479 338.47 644.479 332.491V210.436C644.479 204.458 649.297 199.611 655.24 199.611Z" fill="#2A4059"/>
<path d="M965.371 199.611C974.126 199.611 979.095 209.697 973.791 216.704L925.325 280.746C921.719 285.512 919.766 291.336 919.766 297.326V332.491C919.766 338.47 914.947 343.316 909.004 343.316C903.06 343.316 898.242 338.47 898.242 332.491V299.26C898.242 293.091 896.171 287.104 892.364 282.267L842.248 218.606C836.2 210.923 841.639 199.611 851.382 199.611C855.038 199.611 858.483 201.338 860.684 204.275L887.222 239.676C898.185 254.302 920.058 254.179 930.859 239.432L956.85 203.943C958.845 201.219 962.008 199.611 965.371 199.611Z" fill="#2A4059"/>
<path d="M1133.15 321.966C1139.01 321.966 1143.76 326.745 1143.76 332.641C1143.76 338.537 1139.01 343.316 1133.15 343.316H1056.18C1041.15 343.316 1028.97 331.061 1028.97 315.944V210.436C1028.97 204.458 1033.79 199.611 1039.73 199.611C1045.67 199.611 1050.49 204.458 1050.49 210.436V294.593C1050.49 309.711 1062.68 321.966 1077.7 321.966H1133.15Z" fill="#2A4059"/>
<path d="M1352 271.464C1352 281.865 1349.94 291.583 1345.82 300.615C1341.7 309.511 1335.86 317.313 1328.28 324.019C1320.71 330.725 1311.81 335.994 1301.58 339.826C1291.35 343.522 1280.06 345.369 1267.7 345.369C1255.34 345.369 1243.98 343.522 1233.62 339.826C1223.39 335.994 1214.49 330.725 1206.92 324.019C1199.48 317.313 1193.7 309.511 1189.58 300.615C1185.46 291.583 1183.4 281.865 1183.4 271.464C1183.4 261.062 1185.46 251.414 1189.58 242.518C1193.7 233.485 1199.48 225.615 1206.92 218.909C1214.49 212.203 1223.39 207.002 1233.62 203.307C1243.98 199.474 1255.34 197.558 1267.7 197.558C1280.06 197.558 1291.35 199.474 1301.58 203.307C1311.81 207.002 1320.71 212.203 1328.28 218.909C1335.86 225.615 1341.7 233.485 1345.82 242.518C1349.94 251.414 1352 261.062 1352 271.464ZM1330.08 271.464C1330.08 261.473 1327.42 252.577 1322.11 244.776C1316.79 236.838 1309.42 230.611 1299.99 226.094C1290.69 221.441 1279.92 219.114 1267.7 219.114C1255.34 219.114 1244.45 221.441 1235.02 226.094C1225.72 230.611 1218.41 236.838 1213.09 244.776C1207.91 252.577 1205.32 261.473 1205.32 271.464C1205.32 281.455 1207.91 290.419 1213.09 298.357C1218.41 306.158 1225.72 312.386 1235.02 317.039C1244.45 321.555 1255.34 323.814 1267.7 323.814C1279.92 323.814 1290.69 321.555 1299.99 317.039C1309.42 312.386 1316.79 306.09 1322.11 298.152C1327.42 290.214 1330.08 281.318 1330.08 271.464Z" fill="#2A4059"/>
<path fill-rule="evenodd" clip-rule="evenodd" d="M271.557 508.802C271.557 493.829 259.4 481.692 244.404 481.692C229.407 481.692 217.25 493.829 217.25 508.802C217.25 523.775 229.407 535.913 244.404 535.913C259.4 535.913 271.557 523.775 271.557 508.802ZM232.241 462.927C232.895 462.754 233.556 462.595 234.221 462.45V405.551L199.113 405.924L232.241 462.927ZM254.586 462.45V405.335L291.369 404.945L257.782 463.265C256.731 462.958 255.666 462.686 254.586 462.45ZM275.639 473.048L315.005 404.693L394.863 403.845C395.28 405.736 395.811 407.584 396.447 409.382L279.503 476.821C278.288 475.492 276.998 474.232 275.639 473.048ZM289.7 494.422C291.143 498.958 291.922 503.789 291.922 508.802C291.922 535.005 270.647 556.246 244.404 556.246C218.16 556.246 196.885 535.005 196.885 508.802C196.885 503.789 197.664 498.957 199.108 494.42L81.6066 426.66C72.9733 435.521 60.9015 441.026 47.542 441.026C21.2982 441.026 0.0234375 419.784 0.0234375 393.582C0.0234375 370.869 16.0089 351.884 37.3596 347.23V209.493C16.0089 204.839 0.0234375 185.854 0.0234375 163.141C0.0234375 136.939 21.2982 115.697 47.542 115.697C63.0518 115.697 76.8261 123.116 85.4991 134.594L201.262 67.8362C198.453 61.7803 196.885 55.0334 196.885 47.9209C196.885 21.7184 218.16 0.477051 244.404 0.477051C270.647 0.477051 291.922 21.7184 291.922 47.9209C291.922 55.0329 290.355 61.7795 287.546 67.835L403.31 134.593C411.983 123.116 425.757 115.697 441.266 115.697C467.51 115.697 488.785 136.939 488.785 163.141C488.785 185.854 472.8 204.838 451.45 209.493V347.23C472.8 351.885 488.785 370.87 488.785 393.582C488.785 419.784 467.51 441.026 441.266 441.026C427.907 441.026 415.835 435.522 407.202 426.661L289.7 494.422ZM209.305 476.82L92.362 409.382C92.6337 408.613 92.8861 407.836 93.1187 407.05L175.712 406.173L214.112 472.247C212.405 473.658 210.798 475.187 209.305 476.82ZM394.8 153.167L275.1 84.1384C274.987 84.2335 274.875 84.3281 274.761 84.4221L317.46 156.363H394.229C394.383 155.285 394.574 154.22 394.8 153.167ZM293.788 156.363L256.641 93.7765C255.962 93.9567 255.277 94.1222 254.586 94.2728V156.363H293.788ZM234.221 156.363V94.2728C233.559 94.1284 232.901 93.9702 232.25 93.7985L196.011 156.363H234.221ZM172.485 156.363L214.12 84.4833C213.982 84.3694 213.845 84.2547 213.708 84.1393L94.0088 153.167C94.2344 154.22 94.4249 155.286 94.5793 156.363H172.485ZM430.784 347.296C430.884 347.274 430.985 347.252 431.085 347.23V209.493C430.006 209.258 428.941 208.987 427.891 208.68L388.799 276.558L430.784 347.296ZM412.272 355.991C409.481 358.14 406.936 360.592 404.686 363.298L355.473 334.425L377.141 296.801L412.272 355.991ZM394.82 383.511C394.975 382.799 395.145 382.093 395.331 381.393L345.321 352.053L326.788 384.234L394.82 383.511ZM408.792 197.777C409.199 198.158 409.613 198.531 410.033 198.897L376.876 256.47L359.188 226.667L408.792 197.777ZM395.715 176.696C396.15 178.154 396.653 179.582 397.22 180.977L348.805 209.175L329.528 176.696H395.715ZM57.7247 209.493C58.8087 209.257 59.879 208.984 60.934 208.675L101.627 278.695L61.3794 348.181C60.1806 347.817 58.9616 347.5 57.7247 347.23V209.493ZM78.7897 198.885C79.516 198.252 80.2227 197.597 80.909 196.921L131.724 226.734L113.38 258.405L78.7897 198.885ZM93.093 176.696C92.7738 177.767 92.4177 178.822 92.0263 179.86L141.92 209.132L160.708 176.696H93.093ZM113.41 298.969L79.1351 358.142C80.9309 359.739 82.6046 361.47 84.1403 363.32L133.949 334.31L113.41 298.969ZM94.5644 386.701C94.3031 384.905 93.941 383.142 93.4842 381.417L144.169 351.897L163.967 385.964L94.5644 386.701ZM187.368 385.715L161.76 341.652L234.221 299.45V385.217L187.368 385.715ZM254.586 385.001V298.818L327.763 341.751L303.152 384.485L254.586 385.001ZM337.914 324.123L265.154 281.434L341.596 236.913L365.219 276.713L337.914 324.123ZM234.221 263.286L159.478 219.434L184.233 176.696H234.221V263.286ZM254.586 176.696V264.049L331.214 219.42L305.856 176.696H254.586ZM151.54 324.065L125.163 278.678L149.283 237.036L224.847 281.37L151.54 324.065ZM47.542 366.471C62.5385 366.471 74.6955 378.609 74.6955 393.582C74.6955 408.555 62.5385 420.693 47.542 420.693C32.5456 420.693 20.3885 408.555 20.3885 393.582C20.3885 378.609 32.5456 366.471 47.542 366.471ZM74.6955 163.141C74.6955 148.168 62.5385 136.03 47.542 136.03C32.5456 136.03 20.3885 148.168 20.3885 163.141C20.3885 178.114 32.5456 190.252 47.542 190.252C62.5385 190.252 74.6955 178.114 74.6955 163.141ZM441.266 136.03C456.263 136.03 468.42 148.168 468.42 163.141C468.42 178.114 456.263 190.252 441.266 190.252C426.27 190.252 414.113 178.114 414.113 163.141C414.113 148.168 426.27 136.03 441.266 136.03ZM468.42 393.582C468.42 378.609 456.263 366.471 441.266 366.471C426.27 366.471 414.113 378.609 414.113 393.582C414.113 408.555 426.27 420.693 441.266 420.693C456.263 420.693 468.42 408.555 468.42 393.582ZM244.404 20.8101C259.4 20.8101 271.557 32.948 271.557 47.9209C271.557 62.8936 259.4 75.0316 244.404 75.0316C229.407 75.0316 217.25 62.8936 217.25 47.9209C217.25 32.948 229.407 20.8101 244.404 20.8101Z" fill="#2A4059"/>
</svg>
